<svg xmlns="http://www.w3.org/2000/svg" width="297" height="297" viewBox="0 0 297 297">
	<style>
		path{fill:none;stroke:#222}
		@media(prefers-color-scheme:dark){path{stroke:#E6E6E6;}}
	</style>
	<path stroke-width="14.6" d="M51.4 214.6 109 176m28.7 57.2-10.2-49.6m-60.9-35.5 37.8 11m124-111.6L183.7 74m58.2-13.2L219.2 141M51.8 236.9l65.8 14.7m23.4-91 59-.8m-43.1-59.3-33.7 45.8m-82.8 9-4.9 52.2m116.4 31 59.8-61.3"/>
	<path stroke-width="13.6" d="M166 65a19.2 19.2 0 0 0-19.3 19.2 19.2 19.2 0 0 0 19.2 19.2 19.2 19.2 0 0 0 19.2-19.2A19.2 19.2 0 0 0 166 65zm79-41.2A19.2 19.2 0 0 0 225.6 43 19.2 19.2 0 0 0 245 62.2 19.2 19.2 0 0 0 264.1 43 19.2 19.2 0 0 0 245 23.8zM123.1 146.3a19.2 19.2 0 0 0-19.2 19.2 19.2 19.2 0 0 0 19.2 19.2 19.2 19.2 0 0 0 19.2-19.2 19.2 19.2 0 0 0-19.2-19.2zm96-5.3a19.2 19.2 0 0 0-19.2 19.2 19.2 19.2 0 0 0 19.2 19.2 19.2 19.2 0 0 0 19.2-19.2 19.2 19.2 0 0 0-19.2-19.2zm-81.6 92.2a19.2 19.2 0 0 0-19.2 19.2 19.2 19.2 0 0 0 19.2 19.2 19.2 19.2 0 0 0 19.2-19.2 19.2 19.2 0 0 0-19.2-19.2zm-102-25.7a19.2 19.2 0 0 0-19.3 19.2 19.2 19.2 0 0 0 19.2 19.2 19.2 19.2 0 0 0 19.2-19.2 19.2 19.2 0 0 0-19.2-19.2zm14.3-87a19.2 19.2 0 0 0-19.2 19.3A19.2 19.2 0 0 0 49.9 159 19.2 19.2 0 0 0 69 139.8a19.2 19.2 0 0 0-19.2-19.2z"/>
</svg>
