<svg xmlns="http://www.w3.org/2000/svg" width="297mm" height="297mm" viewBox="0 0 297 297">

  <style>
    path {
    fill: none;
    stroke: #222222;
    }

    @media (prefers-color-scheme: dark) {
      path {
        stroke: #E6E6E6;
      }
  </style>

<path style="fill:none;stroke-width:14.565;stroke-linecap:butt;stroke-linejoin:miter;stroke-opacity:1;stroke-miterlimit:4;stroke-dasharray:none" d="m51.405 214.601 57.452-38.553M137.583 233.193l-10.205-49.586M66.524 148.077l37.797 10.962M228.298 47.536l-44.602 26.458M241.905 60.765l-22.679 80.201M51.783 236.902l65.768 14.74M140.985 160.55l58.964-.755M156.86 100.452l-33.64 45.806M40.443 155.259 35.53 207.49M151.946 238.414l59.72-61.232"/><g>
<path style="opacity:1;fill:none;fill-opacity:1;stroke-width:13.594;stroke-linejoin:round;stroke-miterlimit:4;stroke-dasharray:none;stroke-opacity:1" d="M165.931 64.993A19.206 19.206 0 0 0 146.725 84.2a19.206 19.206 0 0 0 19.206 19.205A19.206 19.206 0 0 0 185.138 84.2a19.206 19.206 0 0 0-19.207-19.207zM244.928 23.794A19.206 19.206 0 0 0 225.722 43a19.206 19.206 0 0 0 19.206 19.206A19.206 19.206 0 0 0 264.135 43a19.206 19.206 0 0 0-19.207-19.206zM123.22 146.258a19.206 19.206 0 0 0-19.206 19.207 19.206 19.206 0 0 0 19.206 19.205 19.206 19.206 0 0 0 19.206-19.205 19.206 19.206 0 0 0-19.206-19.207zM219.226 140.966a19.206 19.206 0 0 0-19.206 19.207 19.206 19.206 0 0 0 19.206 19.206 19.206 19.206 0 0 0 19.206-19.206 19.206 19.206 0 0 0-19.206-19.207zM137.583 233.193a19.206 19.206 0 0 0-19.206 19.206 19.206 19.206 0 0 0 19.206 19.206 19.206 19.206 0 0 0 19.206-19.206 19.206 19.206 0 0 0-19.206-19.206zM35.53 207.49a19.206 19.206 0 0 0-19.206 19.207 19.206 19.206 0 0 0 19.206 19.206 19.206 19.206 0 0 0 19.206-19.206A19.206 19.206 0 0 0 35.53 207.49zM49.893 120.556a19.206 19.206 0 0 0-19.206 19.206 19.206 19.206 0 0 0 19.206 19.206 19.206 19.206 0 0 0 19.206-19.206 19.206 19.206 0 0 0-19.206-19.206z"/></g>
</svg>
